<?xml version="1.0" standalone="no"?>
<!DOCTYPE svg PUBLIC "-//W3C//DTD SVG 20010904//EN"
 "http://www.w3.org/TR/2001/REC-SVG-20010904/DTD/svg10.dtd">
<svg version="1.0" xmlns="http://www.w3.org/2000/svg"
 width="100.000000pt" height="100.000000pt" viewBox="0 0 100.000000 100.000000"
 preserveAspectRatio="xMidYMid meet">
<metadata>
Created by potrace 1.14, written by Peter Selinger 2001-2017
</metadata>
<g transform="translate(0.000000,100.000000) scale(0.100000,-0.100000)"
fill="#000000" stroke="none">
<path d="M164 920 c-58 -23 -107 -67 -137 -124 -25 -49 -31 -165 -12 -236 27
-104 68 -156 234 -302 69 -61 153 -135 185 -164 33 -30 64 -54 68 -54 4 0 16
8 26 17 51 49 126 116 214 191 128 110 185 174 221 252 27 57 31 75 31 160 1
71 -4 104 -17 130 -44 88 -120 139 -218 145 -84 5 -141 -17 -207 -80 l-54 -53
-40 44 c-77 83 -194 113 -294 74z"/>
</g>
</svg>
